<svg width="180" height="200" viewBox="0 0 180 200" xmlns="http://www.w3.org/2000/svg"><g fill="none" fill-rule="evenodd"><path d="M89.86 183.497c25.298-3.615 50.25-7.178 77.015-.098v-79.207c-26.766-7.081-51.717-3.517-77.014.097-24.843 3.55-50.039 7.15-76.736-.003v79.208c26.697 7.153 51.893 3.553 76.736.003z" fill="#DC969C"/><path d="M91.628 116.664c-18.41 2.63-35.844 4.903-53.557 4.033-.583 6.362-5.932 11.345-12.446 11.345v28.905c6.903 0 12.5 5.596 12.5 12.5 0 .479-.028.95-.08 1.416 16.632 1.005 33.158-1.327 50.047-3.74 18.518-2.646 36.01-4.953 53.836-4.09.577-6.367 5.93-11.356 12.447-11.356v-28.91c-6.903 0-12.5-5.597-12.5-12.5 0-.473.028-.94.078-1.399-16.736-.995-33.317 1.366-50.325 3.796z" fill="#F9EEDA"/><path fill="#FFF" d="M118.8 102.6H158v75.2h-39.2z"/><path d="M167.674 101.17c-27.384-7.244-53.245-3.548-78.256.026-11.638 1.663-23.673 3.382-35.695 3.916a3.125 3.125 0 00.277 6.244c12.327-.547 24.515-2.289 36.302-3.973 24.758-3.537 48.184-6.885 73.448-.76v72.789c-25.935-5.924-50.52-2.41-74.332.992-23.569 3.367-47.918 6.846-73.168.665v-72.784c2.973.688 6.002 1.268 9.046 1.732a3.125 3.125 0 00.942-6.179 114.316 114.316 0 01-12.304-2.57A3.124 3.124 0 0010 104.286v79.208c0 1.414.95 2.652 2.316 3.018 11.562 3.098 22.842 4.225 33.9 4.225 15.067 0 29.72-2.093 44.086-4.146 25.516-3.646 49.618-7.09 75.774-.17a3.126 3.126 0 003.924-3.022v-79.207a3.125 3.125 0 00-2.326-3.022z" fill="#B03A3A" fill-rule="nonzero"/><path d="M53.7 134.134v27.595c0 1.648.614 2.984 1.37 2.984 2.267 0 4.111 4.015 4.111 8.95 0 .334-.008.677-.026 1.019-.042.813.071 1.627.313 2.253.242.626.59 1.009.966 1.058 1.216.16 2.432.233 3.647.233 6.271 0 12.51-1.94 18.576-3.828 3.497-1.088 7.215-2.214 10.853-2.987.754-.16 1.305-1.62 1.231-3.26-.073-1.64-.742-2.838-1.497-2.679-3.695.785-7.447 1.922-10.974 3.02-6.683 2.078-13.579 4.223-20.382 3.681-.299-6.532-2.542-11.838-5.447-13.128v-22.222c2.498-1.087 4.505-5.102 5.21-10.435 7.354.51 14.589-1.503 22.557-3.982 7.049-2.193 13.73-4.27 20.505-3.733.302 6.523 2.544 11.82 5.446 13.108v22.227c-2.924 1.273-5.173 6.551-5.452 13.263-.069 1.64.487 3.092 1.24 3.24.755.15 1.42-1.06 1.49-2.701.192-4.634 1.952-8.128 4.093-8.128.756 0 1.37-1.336 1.37-2.983v-27.601c0-1.648-.614-2.984-1.37-2.984-2.267 0-4.111-4.015-4.111-8.95 0-.33.008-.668.025-1.004.042-.813-.071-1.627-.313-2.253-.243-.626-.592-1.008-.967-1.056-7.496-.97-15.044 1.377-22.344 3.648-8.255 2.568-15.701 4.63-23.225 3.824-.733-.075-1.364 1.116-1.431 2.708-.195 4.629-1.955 8.12-4.094 8.12-.756 0-1.37 1.335-1.37 2.983z" fill="#B43C2F" fill-rule="nonzero"/><path d="M39.578 111.392a3.125 3.125 0 00.416-6.236h-.002a3.125 3.125 0 10-.414 6.236z" fill="#B03A3A" fill-rule="nonzero"/><text transform="rotate(-91 174.755 101.664)" font-family="Roboto-Bold, Roboto" font-size="19.2" font-weight="bold" fill="#B43C2F"><tspan x="110.595" y="65.577">20</tspan></text><g fill="#B43C2F"><path d="M21.2 162.6h21.6v8H21.2z"/><path d="M36 155.8v21.6h-8v-21.6z"/></g><path fill="#2F90B3" d="M142.8 119.4h3.2v47.2h-3.2zM149.2 129h3.2v37.6h-3.2z"/></g></svg>