<svg width="180" height="200" viewBox="0 0 180 200" xmlns="http://www.w3.org/2000/svg"><g fill="none" fill-rule="evenodd"><path d="M59.694 176C72.76 141.68 96.337 118.775 131 105.618L118.235 93h-.006c-25.767 19.149-36.534 10.54-48.517 22.462-12.054 11.845-3.344 22.5-22.712 47.983L59.694 176z" fill="#8CE8E7"/><path d="M73.657 185c14.446-30.022 36.363-51.673 66.343-66.314-1.686-4.537-4.206-8.73-7.745-12.272L130.85 105C96.408 118.234 72.982 141.273 60 175.793l1.483 1.485c3.52 3.523 7.668 6.034 12.174 7.722z" fill="#A3EDED"/><path d="M93.335 187.96c12.214-20.934 28.673-37.26 49.62-49.545.248-6.641-.526-13.346-2.78-19.415C110.271 133.604 88.41 155.2 74 185.145c6.043 2.262 12.715 3.05 19.335 2.815z" fill="#BAF1F1"/><path d="M93 188c15.818-.558 31.323-6.901 37.22-12.814 5.885-5.9 12.192-21.37 12.78-37.186-21.108 12.397-37.694 28.874-50 50z" fill="#D1F6F6"/><g fill="#000" fill-rule="nonzero"><path d="M147.159 98.24c1.772-5.565.724-10.835-2.952-14.84-3.939-4.291-10.425-6.306-16.138-5.013-5.371 1.216-9.279 4.985-11.003 10.613l-.664 2.17c-13.283 9.843-22.435 11.95-29.808 13.643-6.554 1.505-12.214 2.805-18.071 8.7-5.902 5.863-7.202 11.522-8.707 18.075-1.694 7.375-3.802 16.53-13.652 29.816l-2.164.662c-5.626 1.722-9.395 5.627-10.612 10.997-1.295 5.715.72 12.202 5.013 16.143 2.732 2.509 6.054 3.794 9.657 3.794 1.677 0 3.415-.278 5.183-.841l17.846-5.686.027-.01c5.775 2.507 12.488 3.8 19.868 3.8 2.816 0 5.73-.188 8.724-.567 13.003-1.65 26.218-6.936 32.136-12.854 5.92-5.92 11.208-19.137 12.858-32.139 1.376-10.843.232-20.616-3.235-28.596l.008-.02 5.686-17.847zm-82.965 34.354c1.46-6.355 2.515-10.946 7.505-15.905 4.952-4.984 9.544-6.038 15.9-7.498 7.606-1.746 17.003-3.904 30.521-13.707l8.906 8.906c-16.137 6.614-29.942 15.56-41.071 26.622-11.222 11.154-20.177 24.909-26.65 40.923l-8.82-8.82c9.804-13.518 11.962-22.915 13.71-30.521zm-12.316 55.284c-5.082 1.619-8.482-.184-10.44-1.98-3.145-2.888-4.62-7.647-3.669-11.842.598-2.64 2.393-6.118 7.546-7.694l1.58-.484 13.149 13.148a34.164 34.164 0 005.55 4.483l-13.716 4.37zm88.366-43.74c-1.713 13.497-7.121 25.07-11.578 29.528-4.455 4.455-16.027 9.86-29.525 11.573-.563.071-1.159.139-1.78.2 11.022-17.655 25.17-31.759 43.07-42.935-.059.57-.122 1.115-.187 1.634zm.51-7.09c-10.221 6.101-19.482 13.25-27.534 21.268-8.102 8.067-15.263 17.294-21.306 27.435-4.555.064-9.803-.37-14.949-1.915 5.338-10.618 11.742-20.287 19.061-28.769a2.246 2.246 0 10-3.401-2.934c-7.666 8.884-14.354 19.018-19.903 30.146-3.397-1.494-6.646-3.574-9.502-6.43l-.453-.453c12.58-32.428 34.751-54.547 67.713-67.552l.37.37c2.88 2.88 4.972 6.162 6.469 9.59-11.168 5.623-21.303 12.298-30.148 19.866a2.246 2.246 0 002.92 3.413c8.446-7.226 18.117-13.62 28.775-19.029 1.54 5.168 1.961 10.434 1.887 14.994zm-2.243-26.461a34.179 34.179 0 00-4.485-5.55l-1.374-1.374a428.07 428.07 0 01-.007-.007l-11.766-11.765.482-1.575c1.58-5.155 5.059-6.95 7.7-7.547 4.193-.95 8.951.525 11.837 3.67 1.797 1.957 3.599 5.357 1.98 10.438l-4.367 13.71z"/><path d="M99.606 144.646a2.246 2.246 0 003.204 3.15l.006-.007a2.242 2.242 0 00-.03-3.173 2.25 2.25 0 00-3.18.03z"/></g></g></svg>