<svg width="180" height="200" viewBox="0 0 180 200" xmlns="http://www.w3.org/2000/svg"><g transform="translate(20 28)" fill-rule="nonzero" fill="none"><path d="M119.841 26.927v-8.17H92.508v8.17l-9.712 9.676a21.745 21.745 0 00-6.394 16.085l2.168 69.12a48.052 48.052 0 01-2.463 16.778v13.617c0 4.512 3.671 8.17 8.2 8.17h43.734c4.53 0 8.2-3.658 8.2-8.17v-13.617a48.109 48.109 0 01-2.46-16.779l2.168-69.12a21.745 21.745 0 00-6.393-16.084l-9.715-9.676z" fill="#CFCFCF"/><path fill="#BFBFBF" d="M93.02 18.757h28.188v4.689H93.02z"/><path d="M135.946 52.719a22.003 22.003 0 00-2.285-10.436l-5.235 1.17a51.948 51.948 0 01-22.637 0 51.94 51.94 0 00-26.314.96l-1.892.572a22.069 22.069 0 00-1.18 7.747l2.167 69.702a48.886 48.886 0 01-2.463 16.906v13.732c0 4.55 3.671 8.239 8.2 8.239h43.734c4.53 0 8.2-3.689 8.2-8.24v-13.73a48.891 48.891 0 01-2.46-16.92l2.165-69.702z" fill="#FDB62F"/><g fill="#77A226"><path d="M136.23 59.66H76.329l1.975 62.662c.091 2.9-.08 5.803-.513 8.673h56.98a48.095 48.095 0 01-.514-8.673l1.975-62.662zM95.2 2.044h22.161c3.061 0 5.54 2.455 5.54 5.487v10.975h-33.24V7.53c0-3.032 2.478-5.487 5.54-5.487z"/></g><g fill="#5A821E"><path d="M32.212 138.522l-3.963-3.856c13.876-13.426 21.653-31.696 21.6-50.735V30.25h5.605V83.93c.056 20.487-8.313 40.144-23.242 54.591z"/><path d="M59.307 131.31l-5.605-.51.72-4.09c2.278-11.02.718-22.464-4.434-32.526l5.014-2.438c5.709 11.15 7.438 23.832 4.916 36.046l-.611 3.517z"/></g><g transform="translate(0 46.893)" fill="#77A226"><ellipse transform="rotate(143.781 31.258 59.91)" cx="31.258" cy="59.911" rx="24.665" ry="5.486"/><ellipse transform="rotate(129.071 36.038 22.737)" cx="36.038" cy="22.737" rx="24.666" ry="5.48"/><ellipse transform="rotate(145.034 67.542 43.71)" cx="67.542" cy="43.71" rx="5.479" ry="24.677"/><ellipse transform="rotate(96.258 55.198 97.395)" cx="55.198" cy="97.395" rx="16.458" ry="10.954"/><ellipse transform="rotate(135 19.59 99.58)" cx="19.59" cy="99.579" rx="16.445" ry="10.964"/></g><path d="M119.678 44.277c.16.237.28.497.42.74 2.979-.15 5.938-.544 8.85-1.182l5.358-1.176a22.004 22.004 0 00-4.204-5.803l-9.94-9.813v-8.286h-13.988v5.524l13.504 19.996z" fill="#BFBFBF"/><g fill="#CFCFCF"><path d="M137.861 50.1zM137.624 47.714zM137.183 45.29z"/></g><g fill="#FDB62F"><path d="M136.131 50.81c.015.249.04.498.051.75-.012-.253-.036-.501-.051-.75zM135.855 47.945c.03.236.063.475.09.714-.027-.242-.06-.478-.09-.714zM135.414 45.24c.032.162.061.311.09.485-.03-.174-.058-.335-.09-.484z"/></g><g fill="#FD9133"><path d="M136.103 131.069h-12.257l-.234 20.125c-.066 5.571-4.422 10.051-9.774 10.051h16.243c4.367 0 7.906-3.684 7.906-8.23V139.3a50.39 50.39 0 01-1.884-8.23zM130.453 43.502a48.34 48.34 0 01-8.338 1.174 19.256 19.256 0 012.635 9.895l-.069 5.171h12.81l-1.875 62.655 2.09-69.626a22.758 22.758 0 00-.077-2.54c-.018-.222-.055-.441-.079-.661a23.82 23.82 0 00-.287-1.898c-.042-.211-.092-.423-.14-.631a22.507 22.507 0 00-.543-1.97c-.045-.143-.09-.274-.14-.428a23.272 23.272 0 00-.938-2.31l-5.049 1.169z"/></g><g fill="#77A226"><path d="M133.722 121.96zM133.782 126.496z"/></g><path d="M123.892 60.96l-.805 70.34h11.816a50.31 50.31 0 01-.472-8.544l1.81-61.796h-12.349z" fill="#5A821E"/><ellipse fill="#FFF" cx="107.114" cy="79.249" rx="19.732" ry="7.972"/><g fill="#5A821E"><path d="M87.455 116.315h39.236v5.44H87.455zM87.455 94.55h39.236v5.44H87.455zM93.059 105.434h28.025v5.44H93.059zM118.267 2.042h-11.21c3.097 0 5.605 2.435 5.605 5.442v10.883h11.21V7.484c0-3.007-2.508-5.442-5.605-5.442z"/></g><path d="M140 152.98v-13.66a2.74 2.74 0 00-.142-.863 45.619 45.619 0 01-2.31-15.883l2.158-69.332a24.707 24.707 0 00-7.168-18.15l-8.884-8.906v-4.332a2.73 2.73 0 002.724-2.732V8.195c0-4.526-3.658-8.195-8.172-8.195H96.41c-4.514 0-8.173 3.669-8.173 8.195v10.927a2.73 2.73 0 002.725 2.732v4.333l-8.882 8.906a24.523 24.523 0 00-5.358 8.135l-.164.049.058.191a24.609 24.609 0 00-1.703 9.775l1.106 35.49c-.406-.606-.787-1.212-1.212-1.821-3.133-4.491-12.668-17.394-19.26-18.303v-38.56h-5.45v18.697a18.823 18.823 0 00-7.058 3.93 86.8 86.8 0 00-12.59 12.908 87.264 87.264 0 00-10.014 15.003c-1.83 3.674-3.904 8.849-.817 11.367a4.14 4.14 0 002.692.926 15.552 15.552 0 008.238-4.065A86.626 86.626 0 0043.138 75.91c2.509-3.09 4.833-6.324 6.96-9.69v17.61c0 2.024-.1 4.032-.272 6.026a20.35 20.35 0 00-7.217 1.997 87.016 87.016 0 00-15.444 9.288 86.731 86.731 0 00-13.474 11.955c-2.7 3.087-6.018 7.567-3.667 10.787a4.625 4.625 0 003.98 1.779 20.14 20.14 0 007.383-2.027 86.482 86.482 0 0015.444-9.288 99.157 99.157 0 009.701-8.086 71.44 71.44 0 01-14.915 25.736 13.052 13.052 0 00-9.026-1.093 23.757 23.757 0 00-11.82 6.679c-7.56 7.58-9.263 17.756-3.856 23.182a11.245 11.245 0 008.154 3.163 22.026 22.026 0 0014.965-7.029 23.863 23.863 0 006.66-11.842 13.04 13.04 0 00-1.195-9.206 76.761 76.761 0 0017.885-33.765 50.818 50.818 0 011.231 24.154 13.214 13.214 0 00-7.287 4.701 25.356 25.356 0 00-2.847 26.053 12.106 12.106 0 009.263 7.07c.376.038.752.06 1.128.06a12.41 12.41 0 009.44-4.952 23.875 23.875 0 005.05-12.627 23.874 23.874 0 00-2.204-13.426 12.824 12.824 0 00-7.083-6.557 56.27 56.27 0 00-4.93-34.816c.166-1.664.272-3.344.329-5.03a103.247 103.247 0 005.939 9.595A86.844 86.844 0 0073.05 110.09a29.381 29.381 0 003.727 2.975l.291 9.51a45.676 45.676 0 01-2.315 15.882c-.093.278-.136.57-.136.863v13.659c0 6.034 4.879 10.927 10.897 10.927h43.589c6.017 0 10.896-4.892 10.896-10.927zM38.91 72.473a61.412 61.412 0 01-15.197 14.43 61.49 61.49 0 0110.968-17.875 61.331 61.331 0 0115.194-14.432A61.376 61.376 0 0138.91 72.474zm-5.3 37.474a61.11 61.11 0 01-18.347 10.089 61.372 61.372 0 0115.13-14.495 61.16 61.16 0 0118.343-10.094 61.208 61.208 0 01-15.125 14.5zm28.707 25.68a19.915 19.915 0 01-2.18 20.028 7.027 7.027 0 01-5.797 2.967 7.111 7.111 0 01-5.016-4.155 19.915 19.915 0 012.18-20.03 7.445 7.445 0 015.28-3.004c.171 0 .345.01.517.03a7.105 7.105 0 015.016 4.171v-.008zm18.04-82.563a19.165 19.165 0 01.632-5.423l.493-.147a49.208 49.208 0 0124.854-.907 55.05 55.05 0 0023.74 0l3.01-.672a19.198 19.198 0 011.174 7.149l-.136 4.302h-53.63l-.137-4.302zm13.33-44.87a2.73 2.73 0 012.724-2.731h21.795a2.73 2.73 0 012.724 2.731v8.196H93.687V8.195zm1.926 21.054a2.729 2.729 0 00.798-1.931v-5.464h21.795v5.464c0 .724.286 1.42.798 1.931l9.68 9.706c.607.62 1.168 1.279 1.686 1.975l-1.474.33a49.506 49.506 0 01-21.38 0 54.72 54.72 0 00-23.48-.04 18.893 18.893 0 011.906-2.265l9.671-9.706zM80.662 62.831h53.293l-1.855 59.574c-.05 1.997.019 3.997.201 5.988H82.316a51.01 51.01 0 00.204-5.988l-.242-7.796a4.022 4.022 0 001.446-.615c3.27-2.284 1.561-7.597 0-11.394-.561-1.366-1.267-2.83-2.037-4.338h.081L80.662 62.83zm-49.31 81.133a18.319 18.319 0 01-5.176 9.062c-5.217 5.237-12.278 7.01-15.414 3.868-3.136-3.142-1.362-10.222 3.858-15.456a18.246 18.246 0 019.036-5.19 10.887 10.887 0 012.103-.22 5.874 5.874 0 014.27 1.541 7.145 7.145 0 011.323 6.395zm34.528-50.81a61.39 61.39 0 01-9.657-18.615 61.326 61.326 0 0114.122 15.486 61.454 61.454 0 019.658 18.615A61.291 61.291 0 0165.88 93.173v-.02zm14.186 59.825v-13.221a51.174 51.174 0 001.479-5.901h51.527a51.24 51.24 0 001.48 5.9v13.222c0 3.019-2.439 5.464-5.45 5.464H85.515c-3.01 0-5.448-2.445-5.448-5.464z" fill="#000"/><path d="M107.114 90.034c10.74 0 21.61-3.705 21.61-10.785 0-7.081-10.87-10.786-21.61-10.786s-21.61 3.705-21.61 10.786c0 7.08 10.87 10.785 21.61 10.785zm0-16.178c10.055 0 16.208 3.505 16.208 5.393 0 1.887-6.153 5.392-16.208 5.392-10.054 0-16.208-3.505-16.208-5.392 0-1.888 6.154-5.393 16.208-5.393zM87.383 117.232h39.463v4.689H87.383zM87.383 95.661h39.463v4.689H87.383zM93.02 106.915h28.188v4.689H93.02z" fill="#000"/></g></svg>