<svg width="180" height="200" viewBox="0 0 180 200" xmlns="http://www.w3.org/2000/svg"><g fill-rule="nonzero" fill="none"><path fill="#11356D" d="M55.561 23.848h68v153h-68z"/><path fill="#74A4EE" d="M78.916 17.973l5.669-5.5 5.669 5.5 5.669-5.5 5.669 5.5 5.669-5.5 5.669 5.5 5.67-5.5 5.668 5.5v5.5H56.296v-5.5l-.028-.027 5.64-5.473 5.67 5.5 5.669-5.5z"/><path d="M73.263 52.513c0-4.696 3.825-8.514 8.529-8.514h16.971c4.675 0 8.5 3.818 8.5 8.514 0 4.667-3.825 8.486-8.5 8.486H81.792c-4.704 0-8.529-3.819-8.529-8.486z" fill="#D53833"/><path fill="#F6BB42" d="M80.885 106.132h9v62h-9zM63.623 106.13h9v62h-9z"/><g fill="#FFCE54"><path d="M73.437 106.538h8.53v62h-8.53zM107.553 106.538h8.529v62h-8.53zM90.495 106.538h8.529v62h-8.529z"/></g><path fill="#F6BB42" d="M98.148 106.134h9v62h-9z"/><path fill="#74A4EE" d="M55.868 177.048h67.972v5.5l-5.67 5.5-5.668-5.5-5.67 5.5-5.668-5.5-5.67 5.5-5.669-5.5-5.669 5.5-5.669-5.5-5.669 5.5-5.669-5.5-5.669 5.5-5.64-5.472.028-.028z"/><path d="M67.273 20.95a2.747 2.747 0 01-1.944-4.694l5.5-5.499a2.746 2.746 0 013.887 0 2.747 2.747 0 010 3.888l-5.5 5.5a2.742 2.742 0 01-1.943.806z" fill="#000"/><path d="M78.855 20.894c-.704 0-1.408-.27-1.944-.806l-5.5-5.5a2.747 2.747 0 010-3.888 2.746 2.746 0 013.888 0l5.5 5.5a2.747 2.747 0 010 3.888 2.742 2.742 0 01-1.944.806zM56.093 20.891a2.747 2.747 0 01-1.944-4.694l5.499-5.5a2.746 2.746 0 013.888 0 2.747 2.747 0 010 3.889l-5.5 5.5a2.742 2.742 0 01-1.943.805z" fill="#000"/><path d="M66.69 21.008c-.704 0-1.408-.27-1.944-.806l-5.5-5.5a2.747 2.747 0 010-3.888 2.746 2.746 0 013.888 0l5.5 5.5a2.747 2.747 0 010 3.888 2.742 2.742 0 01-1.944.806zM78.453 21.01a2.747 2.747 0 01-1.944-4.694l5.5-5.5a2.746 2.746 0 013.887 0 2.747 2.747 0 010 3.889l-5.499 5.5a2.742 2.742 0 01-1.944.805z" fill="#000"/><path d="M90.035 20.953c-.704 0-1.408-.27-1.944-.806l-5.5-5.5a2.747 2.747 0 010-3.887 2.746 2.746 0 013.888 0l5.5 5.5a2.747 2.747 0 010 3.887 2.742 2.742 0 01-1.944.806z" fill="#000"/><path d="M89.633 21.07c-.704 0-1.408-.27-1.944-.806a2.747 2.747 0 010-3.888l5.5-5.5a2.746 2.746 0 013.887 0 2.747 2.747 0 010 3.888l-5.499 5.5a2.742 2.742 0 01-1.944.806z" fill="#000"/><path d="M101.215 21.013c-.704 0-1.408-.27-1.944-.806l-5.5-5.5a2.747 2.747 0 010-3.888 2.746 2.746 0 013.889 0l5.499 5.5a2.747 2.747 0 010 3.888 2.742 2.742 0 01-1.944.806z" fill="#000"/><path d="M101.798 20.956c-.704 0-1.408-.27-1.944-.806a2.747 2.747 0 010-3.888l5.5-5.5a2.746 2.746 0 013.887 0 2.747 2.747 0 010 3.888l-5.499 5.5a2.742 2.742 0 01-1.944.806z" fill="#000"/><path d="M112.395 21.072c-.704 0-1.408-.27-1.944-.806l-5.5-5.5a2.747 2.747 0 010-3.887 2.746 2.746 0 013.889 0l5.5 5.5a2.747 2.747 0 010 3.887 2.742 2.742 0 01-1.945.806z" fill="#000"/><path d="M112.978 21.015c-.704 0-1.408-.27-1.944-.806a2.747 2.747 0 010-3.888l5.5-5.5a2.746 2.746 0 013.888 0 2.747 2.747 0 010 3.889l-5.5 5.5a2.742 2.742 0 01-1.944.805z" fill="#000"/><path d="M123.575 21.132c-.704 0-1.408-.27-1.944-.806l-5.499-5.5a2.747 2.747 0 010-3.888 2.746 2.746 0 013.888 0l5.5 5.5a2.747 2.747 0 010 3.888 2.742 2.742 0 01-1.945.806zM118.516 190.63a2.747 2.747 0 01-1.944-4.694l5.5-5.5a2.746 2.746 0 013.887 0 2.747 2.747 0 010 3.889l-5.5 5.5a2.742 2.742 0 01-1.943.805z" fill="#000"/><path d="M117.933 190.687c-.704 0-1.408-.27-1.944-.805l-5.5-5.5a2.747 2.747 0 010-3.888 2.746 2.746 0 013.888 0l5.5 5.5a2.747 2.747 0 010 3.888 2.742 2.742 0 01-1.944.805z" fill="#000"/><path d="M107.336 190.57a2.747 2.747 0 01-1.944-4.694l5.499-5.499a2.746 2.746 0 013.888 0 2.747 2.747 0 010 3.888l-5.5 5.5a2.742 2.742 0 01-1.943.806z" fill="#000"/><path d="M106.752 190.628c-.703 0-1.407-.27-1.944-.806l-5.499-5.5a2.747 2.747 0 010-3.888 2.746 2.746 0 013.888 0l5.5 5.5a2.747 2.747 0 010 3.888 2.742 2.742 0 01-1.945.806z" fill="#000"/><path d="M96.155 190.511a2.747 2.747 0 01-1.944-4.694l5.5-5.5a2.746 2.746 0 013.888 0 2.747 2.747 0 010 3.889l-5.5 5.5a2.742 2.742 0 01-1.944.805z" fill="#000"/><path d="M95.572 190.568c-.704 0-1.408-.269-1.944-.805l-5.499-5.5a2.747 2.747 0 010-3.888 2.746 2.746 0 013.888 0l5.5 5.5a2.747 2.747 0 010 3.888 2.742 2.742 0 01-1.945.805z" fill="#000"/><path d="M83.99 190.626c-.703 0-1.407-.27-1.944-.806a2.747 2.747 0 010-3.888l5.5-5.5a2.746 2.746 0 013.888 0 2.747 2.747 0 010 3.888l-5.5 5.5a2.742 2.742 0 01-1.944.806z" fill="#000"/><path d="M84.392 190.509c-.704 0-1.408-.27-1.944-.806l-5.5-5.5a2.747 2.747 0 010-3.888 2.746 2.746 0 013.889 0l5.5 5.5a2.747 2.747 0 010 3.888 2.742 2.742 0 01-1.945.806z" fill="#000"/><path d="M72.81 190.566c-.704 0-1.408-.27-1.944-.806a2.747 2.747 0 010-3.888l5.5-5.5a2.746 2.746 0 013.888 0 2.747 2.747 0 010 3.889l-5.5 5.5a2.742 2.742 0 01-1.944.805z" fill="#000"/><path d="M73.212 190.45c-.704 0-1.408-.27-1.944-.806l-5.5-5.5a2.747 2.747 0 010-3.888 2.746 2.746 0 013.889 0l5.499 5.5a2.747 2.747 0 010 3.888 2.742 2.742 0 01-1.944.805z" fill="#000"/><path d="M61.63 190.507c-.704 0-1.408-.27-1.944-.806a2.747 2.747 0 010-3.888l5.5-5.5a2.746 2.746 0 013.887 0 2.747 2.747 0 010 3.888l-5.499 5.5a2.742 2.742 0 01-1.944.806z" fill="#000"/><path d="M61.047 190.564c-.704 0-1.408-.27-1.944-.806l-5.5-5.5a2.747 2.747 0 010-3.888 2.746 2.746 0 013.889 0l5.499 5.5a2.747 2.747 0 010 3.888 2.742 2.742 0 01-1.944.806z" fill="#000"/><path d="M56.108 185.662c-1.66 0-3-1.267-3-2.834V18.495c0-1.567 1.34-2.833 3-2.833 1.659 0 3 1.266 3 2.833v164.333c0 1.567-1.344 2.834-3 2.834zM124.174 185.845c-1.66 0-3-1.267-3-2.833V18.678c0-1.567 1.34-2.833 3-2.833 1.659 0 3 1.266 3 2.833v164.334c0 1.566-1.341 2.833-3 2.833z" fill="#000"/><path d="M124.564 27.548H56.26c-1.575 0-2.848-1.34-2.848-3 0-1.659 1.273-3 2.848-3h68.304c1.575 0 2.848 1.341 2.848 3 0 1.66-1.273 3-2.848 3zM124.021 179.958H55.717c-1.575 0-2.848-1.341-2.848-3s1.273-3 2.848-3h68.304c1.575 0 2.848 1.341 2.848 3s-1.273 3-2.848 3z" fill="#000"/><path d="M116.133 171.248h-51.3a2.839 2.839 0 01-2.85-2.833v-62.333a2.839 2.839 0 012.85-2.834h51.3a2.839 2.839 0 012.85 2.834v62.333a2.839 2.839 0 01-2.85 2.833zm-48.45-5.666h45.6v-56.667h-45.6v56.667z" fill="#4C3300"/><path d="M73.698 170.985c-1.106 0-2-1.266-2-2.833v-62.333c0-1.567.894-2.834 2-2.834 1.106 0 2 1.267 2 2.834v62.333c0 1.567-.894 2.833-2 2.833zM82.735 170.407c-1.106 0-2-1.21-2-2.708v-59.583c0-1.498.894-2.709 2-2.709 1.106 0 2 1.21 2 2.709v59.583c0 1.498-.894 2.708-2 2.708zM90.605 171.382c-1.113.013-1.997-1.17-1.98-2.646l.72-58.73c.019-1.476.933-2.68 2.045-2.692 1.112-.013 1.996 1.17 1.978 2.646l-.72 58.73c-.018 1.476-.931 2.68-2.043 2.692zM98.657 170.978c-1.113.013-1.997-1.17-1.979-2.647l.72-58.73c.018-1.475.932-2.679 2.044-2.692 1.112-.012 1.997 1.17 1.978 2.647l-.72 58.73c-.017 1.475-.931 2.68-2.043 2.692zM108.223 168.99c-1.106 0-2-1.173-2-2.625v-57.75c0-1.452.894-2.625 2-2.625 1.106 0 2 1.173 2 2.625v57.75c0 1.452-.894 2.625-2 2.625z" fill="#4C3300"/><path d="M81.314 64.287c-6.176 0-11.2-5.16-11.2-11.5 0-6.341 5.024-11.5 11.2-11.5 1.548 0 2.8 1.284 2.8 2.874s-1.252 2.874-2.8 2.874c-3.09 0-5.602 2.578-5.602 5.752 0 3.173 2.511 5.751 5.602 5.751 1.548 0 2.8 1.285 2.8 2.874 0 1.59-1.252 2.875-2.8 2.875zM98.228 63.885c-1.548 0-2.8-1.285-2.8-2.875s1.252-2.874 2.8-2.874c3.09 0 5.601-2.578 5.601-5.751 0-3.174-2.51-5.752-5.601-5.752-1.548 0-2.8-1.285-2.8-2.874 0-1.59 1.252-2.874 2.8-2.874 6.175 0 11.2 5.159 11.2 11.5 0 6.34-5.025 11.5-11.2 11.5z" fill="#FFF"/><path d="M98.884 64.13H81.64c-1.591 0-2.878-1.34-2.878-3 0-1.659 1.287-3 2.878-3h17.244c1.591 0 2.878 1.341 2.878 3 0 1.66-1.287 3-2.878 3zM98.886 46.868H81.643c-1.592 0-2.879-1.341-2.879-3 0-1.66 1.287-3 2.879-3h17.243c1.592 0 2.878 1.34 2.878 3 0 1.659-1.286 3-2.878 3zM109.834 75.397H69.586c-1.59 0-2.876-1.34-2.876-3 0-1.659 1.286-3 2.876-3h40.248c1.59 0 2.876 1.341 2.876 3 0 1.66-1.285 3-2.876 3zM110.239 83.45H69.99c-1.59 0-2.875-1.342-2.875-3 0-1.66 1.285-3 2.875-3h40.249c1.59 0 2.876 1.34 2.876 3 0 1.658-1.286 3-2.876 3z" fill="#FFF"/><path d="M95.87 92.573H84.53c-1.565 0-2.83-1.341-2.83-3s1.265-3 2.83-3h11.34c1.565 0 2.83 1.341 2.83 3s-1.265 3-2.83 3z" fill-opacity=".5" fill="#FFF"/></g></svg>