<svg width="180" height="200" viewBox="0 0 180 200" xmlns="http://www.w3.org/2000/svg"><g fill-rule="nonzero" fill="none"><path d="M69.932 57.725c-.037.562-3.042 13.028-12.174 20.47-2.73 2.226-3.162 6.277-.945 9.03.036.045 3.128 3.647 7.332 2.02 6.566-2.54 18.603-9.045 25.306-21.778-.45.192-19.52-9.742-19.52-9.742z" fill="#B18CD9"/><path d="M76.268 59.928H62.34c-2.622 0-4.748-2.139-4.748-4.775v-4.769c0-2.637 2.126-4.775 4.748-4.775h13.928v14.319z" fill="#889CB0"/><path d="M83.54 72.043L71.06 63.88a7.906 7.906 0 01-3.582-6.613v-9.898c0-3.404 2.773-6.165 6.192-6.165h29.732c5.772 0 11.14 2.95 14.215 7.814l8.153 12.894c2.784 4.402-.394 10.132-5.618 10.132H83.539z" fill="#C2EAFB"/><path d="M84.298 41.203H72.653c-3.464 0-6.273 2.76-6.273 6.165v9.898c0 2.664 1.365 5.15 3.63 6.613l12.64 8.164h16.688C91.919 62.815 82.06 62.035 79.735 55.89c-3.683-9.735 4.563-14.687 4.563-14.687z" fill="#91D4F2"/><path d="M106.368 94.072H86.815c-4.004 0-7.252-3.242-7.252-7.242v-8.645c0-4 3.248-7.243 7.252-7.243h19.553c4.005 0 7.252 3.243 7.252 7.243v8.645c0 4-3.246 7.242-7.252 7.242z" fill="#59C2E8"/><path d="M68.951 101.157c-.684 8.34-3.162 20.662-11.302 29.945a17.903 17.903 0 00-4.431 11.822c.01 8.812-.007 23.508-.02 33.89-.01 6.617 5.32 11.983 11.9 11.983h47.607c6.572 0 11.9-5.36 11.9-11.97v-74.802c0-5.609-4.52-10.155-10.097-10.155H79.011c-5.243 0-9.63 4.032-10.06 9.287z" fill="#C2EAFB"/><path d="M68.856 101.157c-.68 8.34-3.144 20.662-11.234 29.945a17.967 17.967 0 00-4.404 11.822c.01 8.812-.007 23.508-.02 33.89-.01 6.617 5.288 11.983 11.827 11.983h15.9c-12.372-47.804 1.846-42.135 4.032-68.142 2.385-28.358 15.48-28.785 15.48-28.785H78.854c-5.21 0-9.57 4.032-9.998 9.287z" fill="#91D4F2"/><path d="M94.634 118.888c-15.252-10.535-29.025-1.113-29.025-1.113-1.723 4.783-4.255 9.6-7.959 13.79a17.674 17.674 0 00-4.432 11.727c.01 8.741-.006 23.32-.02 33.617-.01 6.565 5.322 11.888 11.9 11.888h47.607c6.572 0 11.9-5.316 11.9-11.874v-56.74s-14.718 9.24-29.97-1.295z" fill="#91D4F2"/><path d="M85.348 121.201c.2-2.326.473-4.46.807-6.422-11.501-3.103-20.47 2.996-20.47 2.996-1.733 4.783-4.282 9.6-8.008 13.79a17.617 17.617 0 00-4.459 11.727c.01 8.741-.007 23.32-.02 33.617-.01 6.565 5.353 11.888 11.973 11.888h16.095c-12.524-47.42 1.868-41.797 4.082-67.596z" fill="#59C2E8"/><path d="M105.252 176.681H73.648a7.27 7.27 0 01-7.268-7.274v-26.206a7.271 7.271 0 017.268-7.273h31.604a7.271 7.271 0 017.27 7.273v26.206a7.271 7.271 0 01-7.27 7.274z" fill="#B18CD9"/><path d="M81.76 135.928h-8.306c-3.907 0-7.074 3.256-7.074 7.274v26.206c0 4.018 3.168 7.273 7.074 7.273h5.069c-4.975-24.993-.47-30.903 3.238-40.753z" fill="#996ACC"/><path d="M103.732 160.16c1.213 0 2.198-.944 2.198-2.107v-3.497c0-1.163-.985-2.107-2.198-2.107-1.214 0-2.197.944-2.197 2.107v3.497c0 1.163.983 2.106 2.197 2.106zM75.169 160.16c1.214 0 2.197-.944 2.197-2.107v-3.497c0-1.163-.983-2.107-2.197-2.107s-2.197.944-2.197 2.107v3.497c0 1.163.984 2.106 2.197 2.106zM89.45 161.26c2.077 0 3.996-1.112 5.135-2.977.661-1.081.382-2.535-.625-3.246-.368-.261-2-.935-3.02.673-.489.77-1.2.863-1.49.863a1.725 1.725 0 01-1.488-.863c-.663-1.083-2.014-1.383-3.02-.673-1.007.71-1.287 2.165-.626 3.246 1.14 1.865 3.06 2.978 5.135 2.978z" fill="#000"/><path d="M73.666 178.884h31.568c5.23 0 9.484-4.258 9.484-9.49v-26.179c0-5.233-4.254-9.49-9.484-9.49H73.666c-5.23 0-9.483 4.257-9.483 9.49v26.178c0 5.233 4.254 9.491 9.483 9.491zm-5.037-35.669c0-2.78 2.26-5.042 5.037-5.042h31.568a5.045 5.045 0 015.039 5.042v26.178c0 2.78-2.26 5.042-5.039 5.042H73.666a5.046 5.046 0 01-5.037-5.042v-26.178z" fill="#000"/><path d="M127.869 69.95c1.595-2.876 1.498-6.253-.261-9.033 0 0-1.705-3.387-3.875-1.945-2.17 1.441.087 4.317.087 4.317a4.36 4.36 0 01.13 4.509 4.406 4.406 0 01-3.904 2.293h-8.96a9.387 9.387 0 00-4.404-1.093H87.37c-1.407 0-2.741.311-3.94.864l-11.68-7.636a5.729 5.729 0 01-2.604-4.806v-9.978c0-2.2 1.798-3.989 4.009-3.989h29.994c5.084 0 9.738 2.556 12.447 6.838l2.023 3.198a2.245 2.245 0 003.086.697 2.22 2.22 0 00.701-3.07l-2.023-3.198C115.85 42.334 109.78 39 103.15 39H73.155a8.498 8.498 0 00-7.265 4.087h-2.98c-3.823 0-6.934 3.095-6.934 6.899v4.665c0 3.804 3.111 6.899 6.934 6.899h2.638c-.04 3.357-4.486 10.223-9.738 14.536-5.986 4.914-2.744 10.305-1.286 12.082.88 1.07 4.883 4.661 9.928 2.67 2.927-1.155 8.137-3.436 13.517-7.486v3.51a9.32 9.32 0 00.55 3.144c-6.091.351-11.142 5.175-11.647 11.274-.68 8.215-3.112 19.835-10.83 28.543a19.931 19.931 0 00-5.022 13.253c.006 4.805.003 11.37-.002 18.023a2.232 2.232 0 002.236 2.229h.001a2.233 2.233 0 002.238-2.225c.006-6.657.008-13.224.002-18.032a15.498 15.498 0 013.904-10.304c3.744-4.223 6.358-9.024 8.176-13.832 2.617-1.502 13.864-6.98 26.117 1.46 6.127 4.22 12.176 5.453 17.153 5.453 6.567 0 10.348-1.714 12.065-2.417v53.416c0 5.349-4.373 9.699-9.747 9.699H65.222a9.709 9.709 0 01-6.898-2.845 9.61 9.61 0 01-2.849-6.864l.007-5.696a2.23 2.23 0 00-2.234-2.23h-.003a2.233 2.233 0 00-2.238 2.224L51 176.83a14.017 14.017 0 004.157 10.017A14.17 14.17 0 0065.222 191h47.942c7.841 0 14.222-6.348 14.222-14.151v-74.522c0-6.618-5.263-12.036-11.844-12.33a9.31 9.31 0 00.542-3.135v-8.509a9.267 9.267 0 00-.818-3.808h4.78c3.302 0 6.227-1.717 7.823-4.595zm-21.187 3.501c2.716 0 4.925 2.2 4.925 4.902v8.509c0 1.15-.4 2.244-1.132 3.122h-3.369V79.005a2.232 2.232 0 00-2.237-2.226 2.231 2.231 0 00-2.238 2.226v10.979h-3.367V79.005a2.232 2.232 0 00-2.237-2.226 2.231 2.231 0 00-2.238 2.226v10.979h-3.368V79.005a2.231 2.231 0 00-2.238-2.226 2.232 2.232 0 00-2.237 2.226v10.979h-3.364a4.886 4.886 0 01-1.137-3.122v-8.509c0-2.703 2.21-4.902 4.925-4.902h19.312zm-46.23-18.799v-4.666a2.454 2.454 0 012.458-2.446h1.76v9.557h-1.76a2.454 2.454 0 01-2.458-2.445zm2.405 32.027c-2.61.991-4.67-1.12-4.895-1.362-.678-.844-1.909-3.474.65-5.76 4.916-4.39 8.44-9.652 10.367-13.829.105.074 10.819 7.09 10.819 7.09a9.276 9.276 0 00-1.794 4.76c-5.845 5.12-11.947 7.886-15.147 9.1zm60.053 15.648v16.216a28.183 28.183 0 01-7.654 2.476c-6.801 1.163-13.2-.279-19.016-4.285-8.575-5.908-16.738-5.916-22.076-4.881-1.803.349-3.409.836-4.771 1.343 1.083-4.147 1.656-8.126 1.94-11.55.334-4.043 3.804-7.21 7.9-7.21h35.747c4.373 0 7.93 3.54 7.93 7.891z" fill="#000"/></g></svg>