<svg width="180" height="200" viewBox="0 0 180 200" xmlns="http://www.w3.org/2000/svg"><g transform="translate(45 51)" fill-rule="nonzero" fill="none"><path d="M62.347 46H21.653C11.351 46 3 54.452 3 64.878v61.849C3 132.4 7.545 137 13.151 137H70.85C76.455 137 81 132.4 81 126.726V64.878C81 54.452 72.649 46 62.347 46z" fill="#9BC6FF"/><path d="M53.688 32H29.311C25.274 32 22 35.238 22 39.232V47h39v-7.768C61 35.238 57.726 32 53.687 32z" fill="#F9F9F9"/><path fill="#CEE3FF" d="M35 18h13v13H35zM81.45 19.23l-3.189-3.196H61V5h19.004c1.804 0 3.534.718 4.81 1.996l4.42 4.431a5.526 5.526 0 010 7.803 5.495 5.495 0 01-7.785 0z"/><path fill="#F9F9F9" d="M22 3h39v15H22z"/><path fill="#FFF" d="M20 71h42v42H20z"/><circle fill="#CEE3FF" cx="98.5" cy="47.5" r="7.5"/><circle fill="#CEE3FF" cx="113.5" cy="23.5" r="6.5"/><g fill="#000"><path d="M61.5 20.781c1.317 0 2.414-.94 2.667-2.187h13.272l2.355 2.366a8.118 8.118 0 005.773 2.399c2.09 0 4.181-.8 5.773-2.399 3.183-3.198 3.183-8.402 0-11.601l-4.371-4.392a9.362 9.362 0 00-6.68-2.78H64.168A2.725 2.725 0 0061.5 0H22.314a2.728 2.728 0 00-2.721 2.734v15.313a2.728 2.728 0 002.721 2.734h10.34v7.657h-2.992c-5.552 0-10.07 4.538-10.07 10.117v5.282C8.633 44.793 0 54.059 0 65.317v61.7C0 134.176 5.796 140 12.921 140h57.972c7.125 0 12.921-5.824 12.921-12.983V104.18a2.728 2.728 0 00-2.721-2.735 2.728 2.728 0 00-2.721 2.735v22.837c0 4.143-3.355 7.514-7.479 7.514H12.921c-4.124 0-7.479-3.37-7.479-7.514v-61.7c0-8.877 7.187-16.098 16.021-16.098h40.888c8.834 0 16.02 7.221 16.02 16.098V79.57a2.728 2.728 0 002.722 2.735 2.728 2.728 0 002.721-2.735V65.317c0-11.258-8.631-20.524-19.593-21.48v-5.282c0-5.579-4.516-10.117-10.068-10.117h-2.994V20.78H61.5zM83.12 8.834l4.371 4.392a2.747 2.747 0 010 3.867 2.715 2.715 0 01-3.848 0l-3.152-3.167a2.715 2.715 0 00-1.924-.8H64.22v-5.47H80.29c1.07 0 2.074.419 2.83 1.178zM25.035 5.47H58.78v9.843H25.035V5.47zM58.78 38.555v5.195H25.035v-5.195c0-2.564 2.076-4.649 4.627-4.649h24.49c2.552 0 4.627 2.085 4.627 4.649zM45.717 28.438h-7.62V20.78h7.62v7.657z"/><path d="M20.954 68.086a2.728 2.728 0 00-2.722 2.734v42.11a2.728 2.728 0 002.722 2.734H62.86a2.728 2.728 0 002.72-2.734V70.82a2.728 2.728 0 00-2.72-2.734H20.954zm39.185 42.11H23.675V73.554h36.464v36.64zM98.629 37.188c-5.702 0-10.34 4.66-10.34 10.39s4.638 10.39 10.34 10.39 10.34-4.66 10.34-10.39-4.638-10.39-10.34-10.39zm0 15.312c-2.701 0-4.898-2.208-4.898-4.922 0-2.714 2.197-4.922 4.898-4.922 2.7 0 4.898 2.208 4.898 4.922 0 2.714-2.197 4.922-4.898 4.922zM113.748 14.219c-5.102 0-9.252 4.17-9.252 9.297 0 5.126 4.15 9.297 9.252 9.297S123 28.642 123 23.515c0-5.127-4.15-9.297-9.252-9.297zm0 13.125c-2.101 0-3.81-1.717-3.81-3.828 0-2.111 1.709-3.828 3.81-3.828 2.1 0 3.81 1.717 3.81 3.828 0 2.11-1.71 3.828-3.81 3.828zM81.093 89.14c-.716 0-1.418.293-1.924.802a2.762 2.762 0 00-.797 1.933c0 .72.29 1.425.797 1.933a2.735 2.735 0 001.924.801c.716 0 1.418-.292 1.924-.801a2.76 2.76 0 00.797-1.933c0-.72-.291-1.425-.797-1.933a2.735 2.735 0 00-1.924-.801z"/></g></g></svg>