<svg width="180" height="200" viewBox="0 0 180 200" xmlns="http://www.w3.org/2000/svg"><g transform="translate(32 85)" fill-rule="nonzero" fill="none"><ellipse fill="#FFF" cx="79" cy="16.5" rx="37" ry="15.5"/><path d="M78 1c-1.012 0-2 .031-3 .062 19.574.626 35 7.287 35 15.438S94.574 31.312 75 31.938c1 .031 1.988.062 3 .062 20.98 0 38-6.936 38-15.5S98.98 1 78 1z" fill="#D4D4D4"/><ellipse fill="#D8AE7F" cx="78.5" cy="16.5" rx="19.5" ry="5.5"/><path d="M78 11c-1.022 0-2.018.027-3 .068 9.618.4 17 2.682 17 5.432 0 2.75-7.382 5.032-17 5.432.982.04 1.978.068 3 .068 11.046 0 20-2.462 20-5.5S89.046 11 78 11z" fill="#AC7F4A"/><path d="M116 17v70.364C116 96.003 99.428 103 79 103s-37-6.997-37-15.636V17c0 8.64 16.572 15.636 37 15.636S116 25.64 116 17z" fill="#FFF"/><path d="M110 25.405v61.959c0 8.222-15.426 14.942-35 15.573 1 .032 1.988.063 3 .063 20.98 0 38-6.997 38-15.636V17c0 3.1-2.22 5.98-6 8.405zM78 1C57.713 1 41.254 8.077 41.254 16.814V86H6.288a1.93 1.93 0 01-1.711-1.062 2.014 2.014 0 01.125-2.041l6.77-9.944a1.999 1.999 0 000-2.253L3.347 58.78a2.029 2.029 0 010-2.273l8.123-11.9a1.997 1.997 0 000-2.254l-8.123-11.9a1.997 1.997 0 010-2.253l8.123-11.9a2.029 2.029 0 000-2.273L4.702 4.103a2.014 2.014 0 01-.125-2.041A1.93 1.93 0 016.288 1H78z" fill="#D4D4D4"/><path d="M72.136 1C51.633 1 35 8.077 35 16.814V86h5.864V16.814C40.864 8.077 57.497 1 78 1h-5.864z" fill="#B0B0B0"/><path d="M77.924 0H5.47a3.91 3.91 0 00-3.463 2.09 3.87 3.87 0 00.261 4.023l6.838 9.753L.9 27.568a3.89 3.89 0 000 4.449L9.106 43.71.9 55.416a3.886 3.886 0 000 4.447l8.206 11.714-6.844 9.774a3.87 3.87 0 00-.259 4.022 3.91 3.91 0 003.465 2.089h33.38c0 9.81 17.164 17.492 39.076 17.492S117 97.271 117 87.462v-69.97C117 7.683 99.836 0 77.924 0zM5.468 83.575l6.848-9.773a3.886 3.886 0 000-4.447L4.11 57.64l8.206-11.706a3.89 3.89 0 000-4.449L4.11 29.79l8.206-11.699a3.886 3.886 0 000-4.449L5.47 3.887h47.64c-8.753 3.182-14.263 8.05-14.263 13.605v66.083H5.468zm72.456 17.492c-20.726 0-35.169-7.17-35.169-13.605V25.197c6.264 5.83 19.48 9.788 35.169 9.788 15.689 0 28.904-3.95 35.168-9.788v62.265c0 6.435-14.444 13.605-35.168 13.605zm0-69.97c-20.726 0-35.169-7.17-35.169-13.605 0-6.435 14.443-13.605 35.169-13.605s35.168 7.17 35.168 13.605c0 6.436-14.444 13.606-35.168 13.606z" fill="#000"/><path d="M77.924 7.774c-10.356 0-21.492 2.434-21.492 7.775 0 5.34 11.136 7.774 21.492 7.774 10.355 0 21.492-2.433 21.492-7.774S88.279 7.774 77.924 7.774zm0 11.662c-11.432 0-17.29-2.838-17.585-3.858.295-1.079 6.153-3.916 17.585-3.916 11.332 0 17.193 2.789 17.584 3.887-.39 1.098-6.252 3.887-17.584 3.887z" fill="#000"/><path d="M48.616 34.985c-1.079 0-1.953.87-1.953 1.943v3.888c0 1.073.874 1.943 1.953 1.943 1.08 0 1.954-.87 1.954-1.943v-3.888a1.949 1.949 0 00-1.954-1.943zM48.616 46.646c-1.079 0-1.953.87-1.953 1.944v36.928c0 1.074.874 1.944 1.953 1.944 1.08 0 1.954-.87 1.954-1.944V48.59a1.949 1.949 0 00-1.954-1.944z" fill="#D4D4D4"/></g></svg>