<svg width="180" height="200" viewBox="0 0 180 200" xmlns="http://www.w3.org/2000/svg"><g fill="none" fill-rule="nonzero"><path d="M66 152.213V188c-10.328-3.014-17-7.804-17-13.213V139c0 5.41 6.673 10.2 17 13.213zM132 139v35.787c0 5.409-6.672 10.199-17 13.213v-35.787c10.328-3.014 17-7.804 17-13.213z" fill="#CCD1D9"/><path d="M115 152v35.704C108.167 189.778 99.687 191 90.5 191c-9.188 0-17.667-1.222-24.5-3.296V152c6.833 2.074 15.313 3.296 24.5 3.296 9.188 0 17.667-1.222 24.5-3.296z" fill="#E6E9ED"/><path d="M108.76 170.97A2.302 2.302 0 01110 173c0 .854-.487 1.638-1.24 2.03l-7.521 3.766A11.1 11.1 0 0196.197 180c-1.003 0-2.006-.14-2.98-.406l-13.86-3.794L71 180v-14l8.357 4.2 13.86-3.794a11.334 11.334 0 012.98-.406 11.1 11.1 0 015.042 1.204l7.521 3.766z" fill="#FF826E"/><path d="M131 138.5c0 5.404-6.437 10.189-16.4 13.2-6.86 2.076-15.375 3.3-24.6 3.3-9.225 0-17.74-1.224-24.6-3.3-9.963-3.011-16.4-7.796-16.4-13.2 0-9.116 18.354-16.5 41-16.5s41 7.384 41 16.5z" fill="#FCD770"/><path d="M90.5 128c23.416 0 35.5 7.714 35.5 11 0 3.286-12.084 11-35.5 11S55 142.286 55 139c0-3.286 12.084-11 35.5-11z" fill="#FFEAA7"/><path d="M101.354 135.01l12.642.92c1.442.107 2.828.774 3.598 1.935.266.413.406.8.406 1.133 0 .334-.14.72-.406 1.134-.77 1.16-2.156 1.828-3.598 1.934l-12.642.92c-.098.014-.21.014-.308.014-2.24 0-4.046-1.72-4.046-3.855v-.08c0-2.068 1.61-3.922 3.78-4.055a4.12 4.12 0 01.574 0z" fill="#969FAA"/><path d="M109.022 169.815l-7.371-3.668a12.635 12.635 0 00-8.843-.871L79.71 168.83 70 164v18l9.71-4.832 13.098 3.555c2.925.792 6.134.476 8.843-.872l7.371-3.667A3.537 3.537 0 00111 173a3.54 3.54 0 00-1.978-3.185zm-1.223 3.937l-7.372 3.668a9.85 9.85 0 01-6.901.68l-14.104-3.828-6.689 3.327v-9.198l6.69 3.327 14.104-3.828a9.866 9.866 0 016.902.68l7.372 3.668a.837.837 0 01-.002 1.504zM101 161.777l-.257-2.777c-.908.084-1.824.156-2.743.216l.183 2.784c.943-.063 1.883-.137 2.817-.223zM111 159.498l-.534-2.498a75.19 75.19 0 01-2.466.485l.452 2.515c.86-.156 1.71-.323 2.548-.502zM106 160.641l-.394-2.641c-.862.13-1.732.246-2.606.351l.318 2.649c.9-.108 1.796-.228 2.682-.359z" fill="#000"/><path d="M90.5 121c-23.832 0-42.5 7.796-42.5 17.75v35.5C48 184.204 66.668 192 90.5 192s42.5-7.796 42.5-17.75v-35.5c0-9.954-18.668-17.75-42.5-17.75zm0 2.73c23.782 0 39.758 7.767 39.758 15.02 0 7.253-15.976 15.02-39.758 15.02-23.782 0-39.758-7.767-39.758-15.02 0-7.253 15.976-15.02 39.758-15.02zm-39.758 50.52v-29.118c2.783 3.103 7.557 5.766 13.71 7.733v32.637c-8.655-2.93-13.71-7.172-13.71-11.252zm16.452 12.099V153.67c6.653 1.793 14.635 2.829 23.306 2.829 8.671 0 16.653-1.036 23.306-2.83v32.679c-6.339 1.794-14.255 2.92-23.306 2.92s-16.967-1.126-23.306-2.92zm63.064-12.099c0 4.08-5.055 8.322-13.71 11.252v-32.637c6.153-1.967 10.927-4.63 13.71-7.733v29.118z" fill="#000"/><path d="M124.196 173.802c-.01.36-1.14 2.322-6.196 4.656l1.178 2.542c4.97-2.296 7.822-4.92 7.822-7.198V171h-2.804v2.802zM101.262 144c.136 0 .273-.006.403-.017l12.22-.954c1.9-.148 3.586-1.134 4.513-2.636.4-.65.602-1.287.602-1.893 0-.607-.202-1.243-.602-1.894-.927-1.501-2.614-2.487-4.513-2.635l-12.223-.956c-.249-.018-.5-.02-.752-.003-2.753.184-4.91 2.625-4.91 5.64 0 2.949 2.36 5.348 5.262 5.348zm-.174-8.245a2.48 2.48 0 01.37.002l12.218.955c1.049.083 1.957.589 2.429 1.353.18.295.19.433.19.433 0 .002-.009.14-.192.435-.472.766-1.38 1.272-2.427 1.354l-12.224.956c-1.436.107-2.746-1.089-2.746-2.673 0-1.464 1.069-2.727 2.382-2.815z" fill="#000"/><path d="M90 151c22.585 0 37-7.404 37-12.5S112.585 126 90 126s-37 7.404-37 12.5S67.415 151 90 151zm0-22.222c23.462 0 34.209 7.728 34.26 9.722-.051 1.994-10.798 9.722-34.26 9.722-23.462 0-34.209-7.728-34.26-9.722.051-1.994 10.798-9.722 34.26-9.722zM125 166h3v3h-3zM59 178h3v3h-3zM59 173h3v3h-3zM59 167h3v3h-3z" fill="#000"/><g><path d="M66 117.213V153c-10.328-3.014-17-7.804-17-13.213V104c0 5.41 6.673 10.2 17 13.213zM132 104v35.787c0 5.409-6.672 10.199-17 13.213v-35.787c10.328-3.014 17-7.804 17-13.213z" fill="#CCD1D9"/><path d="M115 117v35.704C108.167 154.778 99.687 156 90.5 156c-9.188 0-17.667-1.222-24.5-3.296V117c6.833 2.074 15.313 3.296 24.5 3.296 9.188 0 17.667-1.222 24.5-3.296z" fill="#E6E9ED"/><path d="M108.76 135.97A2.302 2.302 0 01110 138c0 .854-.487 1.638-1.24 2.03l-7.521 3.766A11.1 11.1 0 0196.197 145c-1.003 0-2.006-.14-2.98-.406l-13.86-3.794L71 145v-14l8.357 4.2 13.86-3.794a11.334 11.334 0 012.98-.406 11.1 11.1 0 015.042 1.204l7.521 3.766z" fill="#FF826E"/><path d="M131 103.5c0 5.404-6.437 10.189-16.4 13.2-6.86 2.076-15.375 3.3-24.6 3.3-9.225 0-17.74-1.224-24.6-3.3-9.963-3.011-16.4-7.796-16.4-13.2C49 94.384 67.354 87 90 87s41 7.384 41 16.5z" fill="#FCD770"/><path d="M90.5 93c23.416 0 35.5 7.714 35.5 11 0 3.286-12.084 11-35.5 11S55 107.286 55 104c0-3.286 12.084-11 35.5-11z" fill="#FFEAA7"/><path d="M101.354 100.01l12.642.92c1.442.107 2.828.774 3.598 1.935.266.413.406.8.406 1.133 0 .334-.14.72-.406 1.134-.77 1.16-2.156 1.828-3.598 1.934l-12.642.92c-.098.014-.21.014-.308.014-2.24 0-4.046-1.72-4.046-3.855v-.08c0-2.068 1.61-3.922 3.78-4.055a4.12 4.12 0 01.574 0z" fill="#969FAA"/><path d="M109.022 134.815l-7.371-3.668a12.635 12.635 0 00-8.843-.871L79.71 133.83 70 129v18l9.71-4.832 13.098 3.555c2.925.792 6.134.476 8.843-.872l7.371-3.667A3.537 3.537 0 00111 138a3.54 3.54 0 00-1.978-3.185zm-1.223 3.937l-7.372 3.668a9.85 9.85 0 01-6.901.68l-14.104-3.828-6.689 3.327v-9.198l6.69 3.327 14.104-3.828a9.866 9.866 0 016.902.68l7.372 3.668a.837.837 0 01-.002 1.504zM101 126.777l-.257-2.777c-.908.084-1.824.156-2.743.216l.183 2.784c.943-.063 1.883-.137 2.817-.223zM111 124.498l-.534-2.498a75.19 75.19 0 01-2.466.485l.452 2.515c.86-.156 1.71-.323 2.548-.502zM106 125.641l-.394-2.641c-.862.13-1.732.246-2.606.351l.318 2.649c.9-.108 1.796-.228 2.682-.359z" fill="#000"/><path d="M90.5 86C66.668 86 48 93.796 48 103.75v35.5C48 149.204 66.668 157 90.5 157s42.5-7.796 42.5-17.75v-35.5C133 93.796 114.332 86 90.5 86zm0 2.73c23.782 0 39.758 7.767 39.758 15.02 0 7.253-15.976 15.02-39.758 15.02-23.782 0-39.758-7.767-39.758-15.02 0-7.253 15.976-15.02 39.758-15.02zm-39.758 50.52v-29.118c2.783 3.103 7.557 5.766 13.71 7.733v32.637c-8.655-2.93-13.71-7.172-13.71-11.252zm16.452 12.099V118.67c6.653 1.793 14.635 2.829 23.306 2.829 8.671 0 16.653-1.036 23.306-2.83v32.679c-6.339 1.794-14.255 2.92-23.306 2.92s-16.967-1.126-23.306-2.92zm63.064-12.099c0 4.08-5.055 8.322-13.71 11.252v-32.637c6.153-1.967 10.927-4.63 13.71-7.733v29.118z" fill="#000"/><path d="M124.196 138.802c-.01.36-1.14 2.322-6.196 4.656l1.178 2.542c4.97-2.296 7.822-4.92 7.822-7.198V136h-2.804v2.802zM101.262 109c.136 0 .273-.006.403-.017l12.22-.954c1.9-.148 3.586-1.134 4.513-2.636.4-.65.602-1.287.602-1.893 0-.607-.202-1.243-.602-1.894-.927-1.501-2.614-2.487-4.513-2.635l-12.223-.956c-.249-.018-.5-.02-.752-.003-2.753.184-4.91 2.625-4.91 5.64 0 2.949 2.36 5.348 5.262 5.348zm-.174-8.245a2.48 2.48 0 01.37.002l12.218.955c1.049.083 1.957.589 2.429 1.353.18.295.19.433.19.433 0 .002-.009.14-.192.435-.472.766-1.38 1.272-2.427 1.354l-12.224.956c-1.436.107-2.746-1.089-2.746-2.673 0-1.464 1.069-2.727 2.382-2.815z" fill="#000"/><path d="M90 116c22.585 0 37-7.404 37-12.5S112.585 91 90 91s-37 7.404-37 12.5S67.415 116 90 116zm0-22.222c23.462 0 34.209 7.728 34.26 9.722-.051 1.994-10.798 9.722-34.26 9.722-23.462 0-34.209-7.728-34.26-9.722.051-1.994 10.798-9.722 34.26-9.722zM125 131h3v3h-3zM59 143h3v3h-3zM59 138h3v3h-3zM59 132h3v3h-3z" fill="#000"/></g></g></svg>