<svg width="512" height="429" xmlns="http://www.w3.org/2000/svg"><g fill-rule="nonzero" fill="none"><path fill="#39AAFF" d="M235.2 35.113h250.464V393.11H235.2z"/><path fill="#2584F6" d="M461.875 35.113h23.79V393.11h-23.79z"/><path fill="#FF9C26" d="M235.195 103.043h250.47v209.605h-250.47z"/><path d="M423.48 199.29c0 34.823-28.226 63.054-63.05 63.054-34.82 0-63.051-28.23-63.051-63.055 0-34.82 28.23-63.05 63.05-63.05 34.825 0 63.051 28.23 63.051 63.05z" fill="#FFF0D0"/><path fill="#F4810E" d="M461.871 103.043h23.793v209.605h-23.793z"/><g fill="#95C6DF"><path d="M486.246 44.008H234.617c-10.082 0-18.254-8.172-18.254-18.254S224.535 7.5 234.617 7.5h251.63c10.081 0 18.253 8.172 18.253 18.254s-8.172 18.254-18.254 18.254zM486.246 420.723H234.617c-10.082 0-18.254-8.172-18.254-18.254 0-10.078 8.172-18.254 18.254-18.254h251.63c10.081 0 18.253 8.172 18.253 18.254s-8.172 18.254-18.254 18.254zM80.172 137.813l5.168 47.007c.984 8.953 8.547 15.73 17.555 15.73h15.386c9.008 0 16.57-6.777 17.555-15.73l5.168-47.007c1.148-10.454-7.035-19.59-17.555-19.59H97.723c-10.516 0-18.7 9.136-17.551 19.59z"/></g><path fill="#FF5656" d="M26.336 212.973H365.73v180.136H26.336z"/><path fill="#F72D2D" d="M341.941 212.973h23.79v180.136h-23.79z"/><path d="M366.313 221.863H25.752c-10.081 0-18.253-8.172-18.253-18.254s8.172-18.254 18.254-18.254h340.558c10.083 0 18.254 8.172 18.254 18.254s-8.171 18.254-18.253 18.254zM366.313 420.723H25.752c-10.081 0-18.253-8.172-18.253-18.254 0-10.078 8.172-18.254 18.254-18.254h340.558c10.083 0 18.254 8.172 18.254 18.254s-8.171 18.254-18.253 18.254z" fill="#B9DEED"/><path d="M268.95 266.078c0-6.015-4.876-10.89-10.891-10.89H133.977c-6.016 0-10.891 4.875-10.891 10.89a12.58 12.58 0 01-8.438 11.875c-10.378 3.633-17.824 13.508-17.824 25.125 0 11.848 7.739 21.883 18.442 25.332 4.601 1.485 7.82 5.63 7.82 10.469v.363c0 6.016 4.875 10.89 10.89 10.89H258.06c6.015 0 10.89-4.874 10.89-10.89v-.265c0-4.868 3.266-9.032 7.914-10.477 10.836-3.367 18.703-13.477 18.703-25.422 0-11.75-7.617-21.723-18.183-25.25-5.047-1.687-8.434-6.43-8.434-11.75z" fill="#3AD391"/><path d="M493.164 377.668v-65-.02-61.273a7.5 7.5 0 00-7.5-7.5 7.5 7.5 0 00-7.5 7.5v53.773H373.23v-36.472c33.168-6.082 57.75-35.285 57.75-69.383 0-38.902-31.648-70.55-70.55-70.55-30.743 0-57.98 20.05-67.23 49.112h-50.5v-67.312h235.464v106.309c0 4.14 3.36 7.5 7.5 7.5 4.14 0 7.5-3.36 7.5-7.5v-113.79-.019V50.555C504.016 47.527 512 37.559 512 25.754 512 11.554 500.445 0 486.246 0H234.617c-14.203 0-25.754 11.555-25.754 25.754 0 11.805 7.985 21.773 18.836 24.805v52.398c0 .027-.004.059-.004.086 0 .031.004.059.004.09v74.722h-31.437a7.5 7.5 0 100 15h170.05c5.93 0 10.754 4.825 10.754 10.754 0 5.93-4.824 10.754-10.753 10.754H25.752C19.825 214.363 15 209.54 15 203.61s4.824-10.754 10.754-10.754h135.984a7.5 7.5 0 100-15h-17.593l4.316-39.222a25.198 25.198 0 00-6.274-19.54 25.181 25.181 0 00-18.734-8.37H97.727a25.183 25.183 0 00-18.739 8.37 25.18 25.18 0 00-6.27 19.54l4.313 39.222H25.754C11.554 177.855 0 189.41 0 203.61c0 11.805 7.984 21.774 18.836 24.805v149.254C7.984 380.699 0 390.664 0 402.468c0 14.204 11.555 25.755 25.754 25.755h87.984a7.5 7.5 0 007.5-7.5 7.5 7.5 0 00-7.5-7.5H25.754c-5.93 0-10.754-4.825-10.754-10.754 0-5.93 4.824-10.754 10.754-10.754h340.558c5.93 0 10.754 4.824 10.754 10.754s-4.824 10.754-10.753 10.754H148.262a7.497 7.497 0 00-7.5 7.5c0 4.144 3.355 7.5 7.5 7.5h337.984c14.2 0 25.754-11.551 25.754-25.754 0-11.805-7.984-21.77-18.836-24.801zM242.7 95.543V51.508h235.465v44.035H242.7zm-18.836-69.79c0-5.929 4.825-10.753 10.75-10.753h251.633C492.176 15 497 19.824 497 25.754s-4.824 10.754-10.754 10.754H234.617c-5.93 0-10.754-4.824-10.754-10.754zM87.625 136.994c-.32-2.907.582-5.712 2.531-7.891a10.037 10.037 0 017.567-3.38h25.726c2.93 0 5.614 1.2 7.567 3.38a10.033 10.033 0 012.53 7.89l-4.491 40.863H92.12l-4.496-40.863zm390.54 183.155v56.567H373.23v-56.567h104.934zM358.23 376.715H33.836V229.363H358.23v147.352zm33.836-173.106c0-14.199-11.554-25.754-25.753-25.754h-57.149c8.531-20.394 28.695-34.117 51.266-34.117 30.632 0 55.55 24.922 55.55 55.551 0 25.914-18.023 48.234-42.75 54.063v-24.938c10.852-3.031 18.836-13 18.836-24.805zm94.18 209.614h-96.543a25.521 25.521 0 002.363-10.754c0-3.836-.847-7.477-2.363-10.754h96.543c5.93 0 10.754 4.824 10.754 10.754s-4.824 10.754-10.754 10.754z" fill="#000"/><path d="M118.543 142.402h-15.91a7.5 7.5 0 00-7.5 7.5c0 4.145 3.355 7.5 7.5 7.5h15.91a7.5 7.5 0 100-15zM112.96 335.55c1.571.505 2.626 1.845 2.626 3.329v.363c0 10.14 8.25 18.39 18.39 18.39H258.06c10.14 0 18.39-8.25 18.39-18.39v-.265c0-1.493 1.063-2.825 2.645-3.317 14.34-4.457 23.972-17.55 23.972-32.582a34.08 34.08 0 00-23.304-32.367 4.866 4.866 0 01-3.313-4.633c0-10.14-8.25-18.39-18.39-18.39H133.977c-10.141 0-18.391 8.25-18.391 18.39a5.1 5.1 0 01-3.414 4.797c-13.668 4.781-22.852 17.723-22.852 32.203.004 14.863 9.504 27.914 23.64 32.473zm4.165-50.515c8.05-2.816 13.46-10.437 13.46-18.957 0-1.871 1.52-3.39 3.392-3.39h124.082c1.87 0 3.39 1.519 3.39 3.39a19.85 19.85 0 0013.563 18.863 19.09 19.09 0 0113.054 18.137c0 8.426-5.394 15.762-13.43 18.262-7.886 2.453-13.187 9.539-13.187 17.637v.265c0 1.871-1.52 3.39-3.39 3.39H133.977a3.393 3.393 0 01-3.391-3.39v-.363c0-8.02-5.234-15.094-13.02-17.606a19.05 19.05 0 01-13.242-18.191c0-8.117 5.145-15.371 12.801-18.047z" fill="#000"/></g></svg>