<svg width="180" height="180" viewBox="0 0 180 180" xmlns="http://www.w3.org/2000/svg"><g fill-rule="nonzero" fill="none"><path d="M91.5 32a58.5 58.5 0 100 117 58.5 58.5 0 000-117z" fill="#4267B2"/><path d="M99.625 106.438h14.889l2.338-15.517H99.625v-8.483c0-6.447 2.054-12.165 7.931-12.165H117v-13.54c-1.66-.227-5.166-.733-11.799-.733-13.849 0-21.965 7.505-21.965 24.6v10.326H69v15.516h14.236v41.829c2.81.434 5.667.729 8.601.729 2.647 0 5.236-.249 7.788-.603v-41.959z" fill="#FFF"/><path d="M91.5 36.179c29.952 0 54.321 24.369 54.321 54.321 0 29.952-24.369 54.321-54.321 54.321-29.952 0-54.321-24.369-54.321-54.321 0-29.952 24.369-54.321 54.321-54.321zm0-4.179C59.191 32 33 58.191 33 90.5S59.191 149 91.5 149 150 122.809 150 90.5 123.809 32 91.5 32z" fill="#35528C"/></g></svg>