<svg width="180" height="180" viewBox="0 0 180 180" xmlns="http://www.w3.org/2000/svg"><g fill-rule="nonzero" fill="none"><path d="M91.5 32a58.5 58.5 0 100 117 58.5 58.5 0 000-117z" fill="#048AD3"/><path d="M91.5 36.179c29.952 0 54.321 24.369 54.321 54.321 0 29.952-24.369 54.321-54.321 54.321-29.952 0-54.321-24.369-54.321-54.321 0-29.952 24.369-54.321 54.321-54.321zm0-4.179C59.191 32 33 58.191 33 90.5S59.191 149 91.5 149 150 122.809 150 90.5 123.809 32 91.5 32z" fill="#026DA7"/><path d="M63 77h15v42H63V77zm7.5-3c-4.499 0-7.5-3.4-7.5-7.6 0-4.2 3.001-7.4 7.5-7.4 4.499 0 7.313 3.2 7.5 7.4 0 4.2-2.811 7.6-7.5 7.6zm52.5 45h-13.566V95.26c0-1.643-.168-7.305-5.934-7.305-5.086 0-5.934 5.296-5.934 7.305V119H84V77h13.566v5.662S100.28 77 108.248 77C116.388 77 123 83.025 123 95.26V119z" fill="#FFF"/></g></svg>