<svg width="180" height="180" viewBox="0 0 180 180" xmlns="http://www.w3.org/2000/svg"><g transform="translate(33 32)" fill-rule="nonzero" fill="none"><circle fill="#03A9F4" cx="58.5" cy="58.5" r="58.5"/><path d="M58.5 4.179c29.952 0 54.321 24.369 54.321 54.321 0 29.952-24.369 54.321-54.321 54.321-29.952 0-54.321-24.369-54.321-54.321 0-29.952 24.369-54.321 54.321-54.321zM58.5 0C26.191 0 0 26.191 0 58.5S26.191 117 58.5 117 117 90.809 117 58.5 90.809 0 58.5 0z" fill="#078DCA"/><path d="M96 36.36c-2.646 1.173-5.997 2.274-9 2.64 3.054-1.812 7.899-5.586 9-9-2.853 1.677-8.013 3.468-11.379 4.116C81.933 31.266 78.099 30 73.851 30 65.691 30 60 36.915 60 45v6c-12 0-23.7-9.141-30.981-18a14.44 14.44 0 00-2.001 7.371c0 5.457 5.013 10.995 8.982 13.629-2.421-.075-7.005-1.923-9-3v.171c0 7.101 4.983 11.922 11.736 13.266C37.503 64.776 36 66 30.216 66c1.878 5.805 11.319 8.874 17.784 9-5.058 3.921-14.076 6-21 6-1.197 0-1.845.066-3-.069C30.534 85.071 39.66 87 48 87c27.171 0 42-20.754 42-40.11 0-.636-.021-2.766-.054-3.39 2.904-2.046 4.08-4.188 6.054-7.14" fill="#FFF"/></g></svg>