<svg width="180" height="180" viewBox="0 0 180 180" xmlns="http://www.w3.org/2000/svg"><g fill="none" fill-rule="evenodd"><path d="M32.604 146.909l8.082-29.505a56.824 56.824 0 01-7.605-28.467C33.096 57.542 58.644 32 90.042 32c15.237.006 29.535 5.937 40.29 16.698C141.084 59.462 147.006 73.766 147 88.982c-.012 31.395-25.566 56.94-56.958 56.94-.003 0 0 0 0 0h-.024a56.895 56.895 0 01-27.219-6.933l-30.195 7.92z" fill="#FFF" fill-rule="nonzero"/><path d="M32.604 148.409a1.496 1.496 0 01-1.446-1.893l7.917-28.908a58.438 58.438 0 01-7.491-28.668c.012-32.226 26.235-58.44 58.458-58.44 15.63.006 30.315 6.093 41.352 17.139 11.037 11.049 17.112 25.731 17.106 41.343-.012 32.223-26.238 58.44-58.458 58.44a58.604 58.604 0 01-27.432-6.831l-29.625 7.767a1.372 1.372 0 01-.381.051z" fill="#FFF" fill-rule="nonzero"/><path d="M90.042 32c15.237.006 29.535 5.937 40.29 16.698C141.084 59.462 147.006 73.766 147 88.982c-.012 31.395-25.566 56.94-56.958 56.94h-.024a56.895 56.895 0 01-27.219-6.933l-30.195 7.92 8.082-29.505a56.824 56.824 0 01-7.605-28.467C33.096 57.542 58.644 32 90.042 32zm0-3c-33.048 0-59.946 26.886-59.961 59.937a60.031 60.031 0 007.383 28.866l-7.755 28.317a3.002 3.002 0 003.657 3.693l29.061-7.62a60.08 60.08 0 0027.591 6.732c33.072 0 59.97-26.889 59.985-59.94.006-16.017-6.225-31.077-17.544-42.405C121.134 35.249 106.071 29.006 90.042 29z" fill="#CFD8DC" fill-rule="nonzero"/><path d="M123.528 55.496c-8.94-8.946-20.823-13.875-33.471-13.878-26.112 0-47.349 21.228-47.361 47.322a47.214 47.214 0 007.239 25.188l1.128 1.791-4.785 17.463 17.919-4.698 1.731 1.026a47.25 47.25 0 0024.096 6.597h.018c26.094 0 47.331-21.231 47.34-47.328.003-12.645-4.914-24.537-13.854-33.483z" fill="#40C351" fill-rule="nonzero"/><path d="M75.804 65.135c-1.065-2.37-2.187-2.418-3.204-2.46-.831-.036-1.779-.033-2.727-.033s-2.49.357-3.795 1.782c-1.305 1.425-4.983 4.866-4.983 11.868 0 7.002 5.1 13.77 5.811 14.718.711.948 9.846 15.777 24.312 21.483 12.021 4.74 14.469 3.798 17.079 3.561 2.61-.237 8.421-3.441 9.606-6.765 1.185-3.324 1.185-6.171.831-6.765-.357-.594-1.305-.948-2.727-1.662s-8.421-4.155-9.726-4.629c-1.305-.474-2.253-.711-3.204.714-.948 1.422-3.675 4.629-4.506 5.577-.831.951-1.662 1.071-3.084.357-1.422-.714-6.006-2.214-11.445-7.062-4.23-3.771-7.086-8.43-7.917-9.855-.831-1.422-.09-2.193.624-2.904.639-.639 1.422-1.662 2.136-2.493.711-.831.948-1.425 1.422-2.373.474-.951.237-1.782-.12-2.493-.351-.714-3.117-7.752-4.383-10.566z" fill="#FFF"/></g></svg>